<?xml version="1.0" encoding="utf-8"?>
<!-- Generator: Adobe Illustrator 23.0.0, SVG Export Plug-In . SVG Version: 6.00 Build 0)  -->
<svg version="1.1" id="Layer_1" xmlns="http://www.w3.org/2000/svg" xmlns:xlink="http://www.w3.org/1999/xlink" x="0px" y="0px"
	 viewBox="0 0 14.51 10.16" style="enable-background:new 0 0 14.51 10.16;" xml:space="preserve">
<style type="text/css">
	.st0{fill:#868686;}
</style>
<path class="st0" d="M14.5,6.74c-0.03-0.35-0.17-0.68-0.38-0.97c-0.13-0.17-0.28-0.31-0.45-0.44c-0.46-0.34-1.04-0.51-1.65-0.49l0,0
	l-0.14,0.01c-0.33,0.02-0.67,0.11-0.97,0.25c0,0,0,0,0,0c-0.11,0.05-0.14,0.07-0.15,0.08C9.82,5.69,9.12,5.89,8.65,5.97
	c0.21-0.43,0.6-1.04,1.35-1.8c0.01-0.01,0.04-0.04,0.12-0.12c0,0,0,0,0,0c0.22-0.25,0.4-0.55,0.52-0.86l0.04-0.13l0,0
	c0.26-0.8,0.14-1.68-0.31-2.28c-0.15-0.2-0.34-0.37-0.55-0.5C9.44,0.05,8.99-0.04,8.55,0.02c-0.4,0.06-0.8,0.23-1.14,0.51
	c-0.2,0.16-0.37,0.35-0.52,0.56C6.69,1.4,6.6,1.62,6.54,1.77C6.26,2.59,6.36,3.5,6.83,4.12C6.91,4.23,7,4.32,7.09,4.41
	c0.05,0.05,0.11,0.09,0.17,0.14L6.59,6.11l-5.13,0.9c-0.02,0-0.04,0-0.06,0.01C1.29,7.04,1.17,7.06,1.05,7.11
	C0.6,7.28,0.34,7.68,0.21,7.99C0.14,8.14,0.1,8.27,0.07,8.39L0,8.7c-0.01,0.05,0,0.1,0.04,0.14S0.13,8.9,0.18,8.89l5.59-0.7
	l-0.82,1.98h1.98L8,7.9L9.63,7.7C9.7,7.89,9.79,8.07,9.91,8.23c0.45,0.59,1.23,0.95,2.06,0.94c0.95-0.02,1.82-0.49,2.26-1.24
	C14.45,7.57,14.54,7.14,14.5,6.74 M8.01,3.52c-0.07-0.04-0.12-0.1-0.17-0.16C7.64,3.09,7.62,2.7,7.68,2.42
	c0.08-0.38,0.29-0.73,0.58-0.95c0.27-0.2,0.58-0.26,0.82-0.15h0c0.1,0.05,0.2,0.12,0.27,0.21C9.5,1.74,9.57,2.06,9.53,2.39
	C9.47,2.81,9.24,3.2,8.92,3.44C8.69,3.6,8.31,3.72,8.01,3.52 M13.24,7c-0.02,0.14-0.08,0.29-0.19,0.42C12.82,7.7,12.43,7.88,12,7.9
	c-0.35,0.02-0.81-0.09-1.06-0.42c-0.01-0.01-0.02-0.02-0.03-0.04c-0.17-0.25-0.14-0.57,0.06-0.83c0.2-0.25,0.53-0.43,0.91-0.48
	l0.04,0c0.35-0.04,0.84,0.04,1.13,0.37c0.01,0.02,0.03,0.03,0.04,0.05C13.21,6.67,13.26,6.84,13.24,7"/>
</svg>
